<svg xmlns="http://www.w3.org/2000/svg" viewBox="0 0 1004 283.1">
  <path d="m321.3 59.2-17.4 5.4c-12.7-23.4-49.4-25.6-71.8-17.3-23.9 8.9-31.3 34.3-24.1 57.3 10.7 34.7 71.3 37.3 93.6 12.7l17.5 4.3c-23 39.4-96.7 39.7-121.8 3.1-14.6-21.3-14-55.6 2.1-76C226.9 14 302.1 16.1 321.2 59.2Zm129.9-31.7v18h-90.5v34.9h74.5v17.9h-74.5v32.8h90.5v18H341.5V27.5zm318.2 0v18h-90.5v34.9h74.5v17.9h-74.5v32.8h90.5v18H659.8V27.5zm-273 0 79.3 96.2V27.5h18.1v121.6H573l-79.3-95.2v95.2h-19.1V27.5zm120.8 0h19.2v121.6h-19.2zm-457.3 98c-10.3-2.5-17.9-11.8-17.9-22.8V86.1c0-24.1-19.5-43.6-43.6-43.6S54.8 62 54.8 86.1v16.5c0 11-7.5 20.3-17.8 22.8h-.2V86q0-3.15.3-6.3c3.1-31 29.3-55.2 61.2-55.2s58.1 24.3 61.2 55.3c.2 2 .3 4.1.3 6.2v39.4Zm-123 8h123v18h-123zM210.1 210c-12.7 0-20.7-6.9-20.7-18s8-18 20.7-18 15.1 3.6 18.2 9.6l-6.8 2.3c-1.7-3.2-5.5-5-11.4-5-8.8 0-13.7 4-13.7 11.1s4.9 11.1 13.7 11.1 8.5-1.4 10.2-3.6l7.3 2.1c-3.2 5.2-9.7 8.4-17.5 8.4m54.5-35.4v6.7h-24.4v7.5h19.7v6.7h-19.7v7h24.4v6.7h-31.3v-34.7h31.3Zm13.7 0 19.9 24.4v-24.4h6.9v34.7h-7.3l-20.2-24.7v24.7h-6.9v-34.7zm63.1 0v6.7h-13.5v28H321v-28h-13.5v-6.7h34Zm33.9 10c0 5.3-3.2 8.9-8.4 9.8l11 14.8h-8.4l-10.8-14.6h-8.1v14.6h-6.9v-34.7h20.4c6.9 0 11.3 3.9 11.3 10Zm-11.7 3.4c3.1 0 4.8-1.2 4.8-3.4s-1.7-3.3-4.8-3.3h-13v6.7zm17.1 3.9c0-11.1 8-18 20.7-18s20.6 6.9 20.6 18-7.9 18-20.6 18-20.7-6.9-20.7-18m20.6 11.2c8.7 0 13.6-4 13.6-11.1s-4.9-11.1-13.6-11.1-13.7 4-13.7 11.1 4.9 11.1 13.7 11.1m77.7-11.2c0 10.7-7.6 17.3-19.8 17.3h-17.9v-34.7h17.9c12.2 0 19.8 6.7 19.8 17.3Zm-19.9 10.5c8.3 0 13-3.7 13-10.4s-4.6-10.4-13-10.4h-10.8v20.9h10.8Zm56.7-27.8v6.7h-24.4v7.5h19.7v6.7h-19.7v7h24.4v6.7h-31.3v-34.7h31.3Zm26.9 0v34.7h-6.9v-34.7zm13.7 0 19.9 24.4v-24.4h6.9v34.7h-7.3l-20.2-24.7v24.7h-6.9v-34.7zm40.5 0 19.9 24.4v-24.4h6.9v34.7h-7.3l-20.2-24.7v24.7h-6.9v-34.7zm32.5 17.3c0-11.1 8-18 20.7-18s20.6 6.9 20.6 18-7.9 18-20.6 18-20.7-6.9-20.7-18m20.6 11.2c8.7 0 13.6-4 13.6-11.1s-4.9-11.1-13.6-11.1-13.7 4-13.7 11.1 4.9 11.1 13.7 11.1m20.6-28.5h7.7l12.1 24.8 12.1-24.8h7.7l-17.1 34.7h-5.4zm55 0 17.1 34.7H735l-3.9-7.9h-16.5l-3.9 7.9H703l17.1-34.7h5.4Zm2.4 20.3-5.1-10.4-5.1 10.4h10.1Zm36.2 15.1c-12.7 0-20.7-6.9-20.7-18s8-18 20.7-18 15.1 3.6 18.2 9.6l-6.8 2.3c-1.7-3.2-5.5-5-11.4-5-8.8 0-13.7 4-13.7 11.1s4.9 11.1 13.7 11.1 8.5-1.4 10.2-3.6l7.3 2.1c-3.2 5.2-9.7 8.4-17.5 8.4m30.1-35.4v34.7h-6.9v-34.7zm5.6 17.3c0-11.1 8-18 20.7-18s20.6 6.9 20.6 18-7.9 18-20.6 18-20.7-6.9-20.7-18m20.7 11.2c8.7 0 13.6-4 13.6-11.1s-4.9-11.1-13.6-11.1-13.7 4-13.7 11.1 4.9 11.1 13.7 11.1m6.6-38.7c1.6 0 2.6 1.2 2.6 3.1s-1 2.3-2.4 2.5l-7.1.8h-3.5c5.7-3.5 9-6.4 10.4-6.4m27.1 10.2 19.9 24.4v-24.4h6.9v34.7h-7.3l-20.2-24.7v24.7h-6.9v-34.7zm-633.1 52v6.7h-24.4v7.5h19.7v6.7h-19.7v7h24.4v6.7h-31.3v-34.7h31.3Zm26.9 0v34.7h-6.9v-34.7zm13.7 0 19.9 24.4v-24.4h6.9v34.7h-7.3l-20.2-24.7v24.7h-6.9v-34.7zm29.1 0h7.7l12.1 24.8 12.1-24.8h7.7l-17.1 34.7H308zm73.1 0v6.7h-24.4v7.5h19.7v6.7h-19.7v7H364v6.7h-31.3v-34.7H364Zm21.3-.7c8.3 0 15 2.9 18.4 7.6l-5.3 3.8c-2-2.9-6.6-4.5-13.3-4.5s-9.7 1.3-9.7 3.6c0 5.7 29.8.8 29.8 15s-6.7 10.7-17.5 10.7-16.3-3.2-19.4-8.3l7.2-2.1c1.8 2.2 5.7 3.6 12.1 3.6s10.6-1.3 10.6-3.8c0-6.5-29.8-1.3-29.8-15s6.5-10.4 16.9-10.4Zm55.2.7v6.7H427v28h-6.9v-28h-13.5v-6.7h34Zm9.2 0v34.7h-6.9v-34.7zm44.3 15.2v19.5h-6.9v-1.7q-4.8 2.4-11.1 2.4c-12.7 0-20.7-6.9-20.7-18s8-18 20.7-18 13.9 3.1 17.4 8.5l-5.9 2.8c-2-3-5.8-4.9-11.4-4.9-8.8 0-13.7 4.2-13.7 11.6s4.9 11.6 13.7 11.6 9.2-1.2 11.1-3.3v-3.6h-8.5V242h15.4Zm24.6-15.2 17.1 34.7H528l-3.9-7.9h-16.5l-3.9 7.9H496l17.1-34.7h5.4Zm2.4 20.3-5.1-10.4-5.1 10.4h10.1Zm36.2 15.1c-12.7 0-20.7-6.9-20.7-18s8-18 20.7-18 15.1 3.6 18.2 9.6l-6.8 2.3c-1.7-3.2-5.5-5-11.4-5-8.8 0-13.7 4-13.7 11.1s4.9 11.1 13.7 11.1 8.5-1.4 10.2-3.6l7.3 2.1c-3.2 5.2-9.7 8.4-17.5 8.4m30.2-35.4v34.7h-6.9v-34.7zm5.5 17.3c0-11.1 8-18 20.7-18s20.6 6.9 20.6 18-7.9 18-20.6 18-20.7-6.9-20.7-18m20.7 11.2c8.7 0 13.6-4 13.6-11.1s-4.9-11.1-13.6-11.1-13.7 4-13.7 11.1 4.9 11.1 13.7 11.1m6.6-38.7c1.6 0 2.6 1.2 2.6 3.1s-1 2.3-2.4 2.5l-7.2.8h-3.5c5.7-3.5 9-6.4 10.4-6.4Zm27.1 10.2 19.9 24.4v-24.4h6.9v34.7h-7.3l-20.2-24.7v24.7h-6.9v-34.7zm78.1 0v6.7H701v7.5h19.7v6.7H701v7h24.4v6.7h-31.3v-34.7h31.3Zm21.4-.7c8.3 0 15 2.9 18.4 7.6l-5.3 3.8c-2-2.9-6.6-4.5-13.3-4.5s-9.7 1.3-9.7 3.6c0 5.7 29.8.8 29.8 15s-6.7 10.7-17.5 10.7-16.3-3.2-19.4-8.3l7.2-2.1c1.8 2.2 5.7 3.6 12.1 3.6s10.6-1.3 10.6-3.8c0-6.5-29.8-1.3-29.8-15s6.5-10.4 16.9-10.4ZM792 262c-12.7 0-20.7-6.9-20.7-18s8-18 20.7-18 15.1 3.6 18.2 9.6l-6.8 2.3c-1.7-3.2-5.5-5-11.4-5-8.8 0-13.7 4-13.7 11.1s4.9 11.1 13.7 11.1 8.5-1.4 10.2-3.6l7.3 2.1c-3.2 5.2-9.7 8.4-17.5 8.4m54.5-35.4v6.7h-24.4v7.5h19.7v6.7h-19.7v7h24.4v6.7h-31.3v-34.7h31.3Zm-8.6-10.2c1.6 0 2.6 1.2 2.6 3.1s-1 2.3-2.4 2.5l-7.2.8h-3.5c5.7-3.5 9-6.4 10.4-6.4Zm22.3 10.2 19.9 24.4v-24.4h6.9v34.7h-7.3l-20.2-24.7v24.7h-6.9v-34.7zm39.8 0v34.7h-6.9v-34.7zm26.2 35.4c-12.7 0-20.7-6.9-20.7-18s8-18 20.7-18 15.1 3.6 18.2 9.6l-6.8 2.3c-1.7-3.2-5.5-5-11.4-5-8.8 0-13.7 4-13.7 11.1s4.9 11.1 13.7 11.1 8.5-1.4 10.2-3.6l7.3 2.1c-3.2 5.2-9.7 8.4-17.5 8.4m42.3-35.4 17.1 34.7h-7.7l-3.9-7.9h-16.5l-3.9 7.9h-7.7l17.1-34.7h5.4Zm2.4 20.3-5.1-10.4-5.1 10.4h10.1Z"/>
</svg>